<svg width="375" height="282" viewBox="0 0 375 282" fill="none" xmlns="http://www.w3.org/2000/svg">
<path d="M216.307 58.6026V58.6016C216.307 51.1337 212.915 44.3581 207.403 39.3548C209.586 36.0002 210.839 32.1286 210.839 28.0012C210.839 15.2275 198.9 4.87247 184.174 4.87247C180.222 4.87247 176.476 5.62377 173.102 6.96241C167.46 2.7095 160.099 0.129639 152.04 0.129639C142.178 0.129639 133.361 3.98539 127.466 10.05C124.085 9.31371 120.55 8.91839 116.905 8.91839C93.0154 8.91839 73.6474 25.7174 73.6474 46.4414C73.6474 47.8981 73.7533 49.3323 73.939 50.745C61.5227 54.6007 52.6357 64.8929 52.6357 76.9903C52.6357 92.3851 67.0229 104.865 84.771 104.865C87.4817 104.865 90.1114 104.571 92.6256 104.023C99.8861 115.904 114.282 124 130.863 124C143.871 124 155.527 119.014 163.458 111.133C169.052 115.231 176.277 117.705 184.173 117.705C195.721 117.705 205.842 112.418 211.506 104.484C213.065 104.731 214.669 104.866 216.307 104.866C231.034 104.866 242.972 94.5088 242.972 81.735C242.972 68.9576 231.033 58.6026 216.307 58.6026Z" fill="white"/>
<path d="M325.335 58.4729V58.472C325.335 51.0041 321.943 44.2284 316.431 39.2252C318.615 35.8706 319.867 31.999 319.867 27.8716C319.867 15.0978 307.928 4.74283 293.202 4.74283C289.251 4.74283 285.504 5.49413 282.13 6.83277C276.489 2.57986 269.128 0 261.068 0C251.207 0 242.389 3.85575 236.494 9.92037C233.113 9.18407 229.578 8.78875 225.934 8.78875C202.044 8.78875 182.676 25.5877 182.676 46.3118C182.676 47.7685 182.782 49.2027 182.967 50.6153C170.551 54.4711 161.664 64.7633 161.664 76.8607C161.664 92.2555 176.051 104.735 193.799 104.735C196.51 104.735 199.14 104.441 201.654 103.893C208.914 115.774 223.31 123.87 239.891 123.87C252.899 123.87 264.555 118.884 272.486 111.003C278.08 115.101 285.305 117.575 293.201 117.575C304.749 117.575 314.87 112.288 320.535 104.355C322.093 104.601 323.697 104.736 325.335 104.736C340.063 104.736 352 94.3791 352 81.6054C352 68.8279 340.061 58.4729 325.335 58.4729Z" fill="white"/>
<path d="M395.635 58.4729V58.472C395.635 51.0041 392.243 44.2284 386.731 39.2252C388.914 35.8706 390.167 31.999 390.167 27.8716C390.167 15.0978 378.228 4.74283 363.502 4.74283C359.55 4.74283 355.804 5.49413 352.43 6.83277C346.788 2.57986 339.427 0 331.368 0C321.507 0 312.689 3.85575 306.794 9.92037C303.413 9.18407 299.878 8.78875 296.233 8.78875C272.344 8.78875 252.976 25.5877 252.976 46.3118C252.976 47.7685 253.081 49.2027 253.267 50.6153C240.851 54.4711 231.964 64.7633 231.964 76.8607C231.964 92.2555 246.351 104.735 264.099 104.735C266.81 104.735 269.44 104.441 271.954 103.893C279.214 115.774 293.61 123.87 310.191 123.87C323.199 123.87 334.855 118.884 342.786 111.003C348.38 115.101 355.605 117.575 363.501 117.575C375.049 117.575 385.17 112.288 390.835 104.355C392.393 104.601 393.997 104.736 395.635 104.736C410.362 104.736 422.3 94.3791 422.3 81.6054C422.3 68.8279 410.361 58.4729 395.635 58.4729Z" fill="white"/>
<path d="M395.635 58.4729V58.472C395.635 51.0041 392.243 44.2284 386.731 39.2252C388.914 35.8706 390.167 31.999 390.167 27.8716C390.167 15.0978 378.228 4.74283 363.502 4.74283C359.55 4.74283 355.804 5.49413 352.43 6.83277C346.788 2.57986 339.427 0 331.368 0C321.507 0 312.689 3.85575 306.794 9.92037C303.413 9.18407 299.878 8.78875 296.233 8.78875C272.344 8.78875 252.976 25.5877 252.976 46.3118C252.976 47.7685 253.081 49.2027 253.267 50.6153C240.851 54.4711 231.964 64.7633 231.964 76.8607C231.964 92.2555 246.351 104.735 264.099 104.735C266.81 104.735 269.44 104.441 271.954 103.893C279.214 115.774 293.61 123.87 310.191 123.87C323.199 123.87 334.855 118.884 342.786 111.003C348.38 115.101 355.605 117.575 363.501 117.575C375.049 117.575 385.17 112.288 390.835 104.355C392.393 104.601 393.997 104.736 395.635 104.736C410.362 104.736 422.3 94.3791 422.3 81.6054C422.3 68.8279 410.361 58.4729 395.635 58.4729Z" fill="white"/>
<path d="M114.671 58.4729V58.472C114.671 51.0041 111.279 44.2284 105.767 39.2252C107.951 35.8706 109.203 31.999 109.203 27.8716C109.203 15.0978 97.2643 4.74283 82.538 4.74283C78.5864 4.74283 74.84 5.49413 71.4663 6.83277C65.8245 2.57986 58.4635 0 50.4038 0C40.5427 0 31.7248 3.85575 25.8304 9.92037C22.449 9.18407 18.9143 8.78875 15.2695 8.78875C-8.62032 8.78875 -27.9883 25.5877 -27.9883 46.3118C-27.9883 47.7685 -27.8825 49.2027 -27.6967 50.6153C-40.113 54.4711 -49 64.7633 -49 76.8607C-49 92.2555 -34.6128 104.735 -16.8647 104.735C-14.154 104.735 -11.5243 104.441 -9.01018 103.893C-1.74962 115.774 12.6463 123.87 29.2269 123.87C42.235 123.87 53.891 118.884 61.8222 111.003C67.4164 115.101 74.6413 117.575 82.5369 117.575C94.0849 117.575 104.206 112.288 109.871 104.355C111.429 104.601 113.033 104.736 114.671 104.736C129.399 104.736 141.336 94.3791 141.336 81.6054C141.336 68.8279 129.397 58.4729 114.671 58.4729Z" fill="white"/>
<path d="M216.306 93.3226V93.3216C216.306 85.8537 212.914 79.0781 207.402 74.0748C209.585 70.7203 210.838 66.8486 210.838 62.7212C210.838 49.9475 198.899 39.5925 184.173 39.5925C180.221 39.5925 176.475 40.3438 173.101 41.6824C167.459 37.4295 160.098 34.8497 152.039 34.8497C142.177 34.8497 133.36 38.7054 127.465 44.77C124.084 44.0337 120.549 43.6384 116.904 43.6384C93.0144 43.6384 73.6465 60.4374 73.6465 81.1615C73.6465 82.6181 73.7523 84.0524 73.9381 85.465C61.5218 89.3207 52.6348 99.613 52.6348 111.71C52.6348 127.105 67.022 139.585 84.77 139.585C87.4807 139.585 90.1104 139.291 92.6246 138.743C99.8852 150.624 114.281 158.72 130.862 158.72C143.87 158.72 155.526 153.734 163.457 145.853C169.051 149.951 176.276 152.425 184.172 152.425C195.72 152.425 205.841 147.138 211.505 139.204C213.064 139.451 214.668 139.586 216.306 139.586C231.033 139.586 242.971 129.229 242.971 116.455C242.971 103.678 231.032 93.3226 216.306 93.3226Z" fill="white"/>
<path d="M325.335 93.1929V93.1919C325.335 85.724 321.943 78.9484 316.431 73.9451C318.615 70.5906 319.867 66.7189 319.867 62.5915C319.867 49.8178 307.928 39.4628 293.202 39.4628C289.251 39.4628 285.504 40.2141 282.13 41.5527C276.489 37.2998 269.128 34.72 261.068 34.72C251.207 34.72 242.389 38.5757 236.494 44.6403C233.113 43.904 229.578 43.5087 225.934 43.5087C202.044 43.5087 182.676 60.3077 182.676 81.0318C182.676 82.4884 182.782 83.9227 182.967 85.3353C170.551 89.191 161.664 99.4833 161.664 111.581C161.664 126.975 176.051 139.455 193.799 139.455C196.51 139.455 199.14 139.161 201.654 138.613C208.914 150.494 223.31 158.59 239.891 158.59C252.899 158.59 264.555 153.604 272.486 145.723C278.08 149.821 285.305 152.295 293.201 152.295C304.749 152.295 314.87 147.008 320.535 139.075C322.093 139.321 323.697 139.456 325.335 139.456C340.063 139.456 352 129.099 352 116.325C352 103.548 340.061 93.1929 325.335 93.1929Z" fill="white"/>
<path d="M395.634 93.1929V93.1919C395.634 85.724 392.242 78.9484 386.73 73.9451C388.913 70.5906 390.166 66.7189 390.166 62.5915C390.166 49.8178 378.227 39.4628 363.501 39.4628C359.549 39.4628 355.803 40.2141 352.429 41.5527C346.787 37.2998 339.426 34.72 331.367 34.72C321.506 34.72 312.688 38.5757 306.793 44.6403C303.412 43.904 299.877 43.5087 296.232 43.5087C272.343 43.5087 252.975 60.3077 252.975 81.0318C252.975 82.4884 253.08 83.9227 253.266 85.3353C240.85 89.191 231.963 99.4833 231.963 111.581C231.963 126.975 246.35 139.455 264.098 139.455C266.809 139.455 269.439 139.161 271.953 138.613C279.213 150.494 293.609 158.59 310.19 158.59C323.198 158.59 334.854 153.604 342.785 145.723C348.379 149.821 355.604 152.295 363.5 152.295C375.048 152.295 385.169 147.008 390.834 139.075C392.392 139.321 393.996 139.456 395.634 139.456C410.361 139.456 422.299 129.099 422.299 116.325C422.299 103.548 410.36 93.1929 395.634 93.1929Z" fill="white"/>
<path d="M114.671 93.1929V93.1919C114.671 85.724 111.279 78.9484 105.767 73.9451C107.951 70.5906 109.203 66.7189 109.203 62.5915C109.203 49.8178 97.2643 39.4628 82.538 39.4628C78.5864 39.4628 74.84 40.2141 71.4663 41.5527C65.8245 37.2998 58.4635 34.72 50.4038 34.72C40.5427 34.72 31.7248 38.5757 25.8304 44.6403C22.449 43.904 18.9143 43.5087 15.2695 43.5087C-8.62032 43.5087 -27.9883 60.3077 -27.9883 81.0318C-27.9883 82.4884 -27.8825 83.9227 -27.6967 85.3353C-40.113 89.191 -49 99.4833 -49 111.581C-49 126.975 -34.6128 139.455 -16.8647 139.455C-14.154 139.455 -11.5243 139.161 -9.01018 138.613C-1.74962 150.494 12.6463 158.59 29.2269 158.59C42.235 158.59 53.891 153.604 61.8222 145.723C67.4164 149.821 74.6413 152.295 82.5369 152.295C94.0849 152.295 104.206 147.008 109.871 139.075C111.429 139.321 113.033 139.456 114.671 139.456C129.399 139.456 141.336 129.099 141.336 116.325C141.336 103.548 129.397 93.1929 114.671 93.1929Z" fill="white"/>
<path d="M216.306 110.694V110.693C216.306 103.225 212.914 96.4497 207.402 91.4465C209.585 88.0919 210.838 84.2203 210.838 80.0929C210.838 67.3192 198.899 56.9641 184.173 56.9641C180.221 56.9641 176.475 57.7154 173.101 59.0541C167.459 54.8012 160.098 52.2213 152.039 52.2213C142.177 52.2213 133.36 56.0771 127.465 62.1417C124.084 61.4054 120.549 61.0101 116.904 61.0101C93.0144 61.0101 73.6465 77.809 73.6465 98.5331C73.6465 99.9898 73.7523 101.424 73.9381 102.837C61.5218 106.692 52.6348 116.985 52.6348 129.082C52.6348 144.477 67.022 156.956 84.77 156.956C87.4807 156.956 90.1104 156.662 92.6246 156.114C99.8852 167.995 114.281 176.092 130.862 176.092C143.87 176.092 155.526 171.105 163.457 163.224C169.051 167.323 176.276 169.797 184.172 169.797C195.72 169.797 205.841 164.509 211.505 156.576C213.064 156.822 214.668 156.957 216.306 156.957C231.033 156.957 242.971 146.6 242.971 133.827C242.971 121.049 231.032 110.694 216.306 110.694Z" fill="white"/>
<path d="M325.335 110.564V110.564C325.335 103.096 321.943 96.32 316.431 91.3167C318.615 87.9622 319.867 84.0905 319.867 79.9631C319.867 67.1894 307.928 56.8344 293.202 56.8344C289.251 56.8344 285.504 57.5857 282.13 58.9243C276.489 54.6714 269.128 52.0916 261.068 52.0916C251.207 52.0916 242.389 55.9473 236.494 62.0119C233.113 61.2756 229.578 60.8803 225.934 60.8803C202.044 60.8803 182.676 77.6793 182.676 98.4033C182.676 99.86 182.782 101.294 182.967 102.707C170.551 106.563 161.664 116.855 161.664 128.952C161.664 144.347 176.051 156.827 193.799 156.827C196.51 156.827 199.14 156.532 201.654 155.984C208.914 167.865 223.31 175.962 239.891 175.962C252.899 175.962 264.555 170.976 272.486 163.095C278.08 167.193 285.305 169.667 293.201 169.667C304.749 169.667 314.87 164.38 320.535 156.446C322.093 156.693 323.697 156.828 325.335 156.828C340.063 156.828 352 146.471 352 133.697C352 120.919 340.061 110.564 325.335 110.564Z" fill="white"/>
<path d="M325.335 203.473V203.472C325.335 196.004 321.943 189.228 316.431 184.225C318.615 180.871 319.867 176.999 319.867 172.872C319.867 160.098 307.928 149.743 293.202 149.743C289.251 149.743 285.504 150.494 282.13 151.833C276.489 147.58 269.128 145 261.068 145C251.207 145 242.389 148.856 236.494 154.92C233.113 154.184 229.578 153.789 225.934 153.789C202.044 153.789 182.676 170.588 182.676 191.312C182.676 192.768 182.782 194.203 182.967 195.615C170.551 199.471 161.664 209.763 161.664 221.861C161.664 237.255 176.051 249.735 193.799 249.735C196.51 249.735 199.14 249.441 201.654 248.893C208.914 260.774 223.31 268.87 239.891 268.87C252.899 268.87 264.555 263.884 272.486 256.003C278.08 260.101 285.305 262.575 293.201 262.575C304.749 262.575 314.87 257.288 320.535 249.355C322.093 249.601 323.697 249.736 325.335 249.736C340.063 249.736 352 239.379 352 226.605C352 213.828 340.061 203.473 325.335 203.473Z" fill="white"/>
<path d="M325.335 296.381V296.38C325.335 288.912 321.943 282.137 316.431 277.134C318.615 273.779 319.867 269.907 319.867 265.78C319.867 253.006 307.928 242.651 293.202 242.651C289.251 242.651 285.504 243.403 282.13 244.741C276.489 240.488 269.128 237.908 261.068 237.908C251.207 237.908 242.389 241.764 236.494 247.829C233.113 247.092 229.578 246.697 225.934 246.697C202.044 246.697 182.676 263.496 182.676 284.22C182.676 285.677 182.782 287.111 182.967 288.524C170.551 292.379 161.664 302.672 161.664 314.769C161.664 330.164 176.051 342.643 193.799 342.643C196.51 342.643 199.14 342.349 201.654 341.801C208.914 353.682 223.31 361.779 239.891 361.779C252.899 361.779 264.555 356.792 272.486 348.911C278.08 353.01 285.305 355.484 293.201 355.484C304.749 355.484 314.87 350.197 320.535 342.263C322.093 342.509 323.697 342.644 325.335 342.644C340.063 342.644 352 332.288 352 319.514C352 306.736 340.061 296.381 325.335 296.381Z" fill="white"/>
<path d="M395.634 110.564V110.564C395.634 103.096 392.242 96.32 386.73 91.3167C388.913 87.9622 390.166 84.0905 390.166 79.9631C390.166 67.1894 378.227 56.8344 363.501 56.8344C359.549 56.8344 355.803 57.5857 352.429 58.9243C346.787 54.6714 339.426 52.0916 331.367 52.0916C321.506 52.0916 312.688 55.9473 306.793 62.0119C303.412 61.2756 299.877 60.8803 296.232 60.8803C272.343 60.8803 252.975 77.6793 252.975 98.4033C252.975 99.86 253.08 101.294 253.266 102.707C240.85 106.563 231.963 116.855 231.963 128.952C231.963 144.347 246.35 156.827 264.098 156.827C266.809 156.827 269.439 156.532 271.953 155.984C279.213 167.865 293.609 175.962 310.19 175.962C323.198 175.962 334.854 170.976 342.785 163.095C348.379 167.193 355.604 169.667 363.5 169.667C375.048 169.667 385.169 164.38 390.834 156.446C392.392 156.693 393.996 156.828 395.634 156.828C410.361 156.828 422.299 146.471 422.299 133.697C422.299 120.919 410.36 110.564 395.634 110.564Z" fill="white"/>
<path d="M114.671 110.564V110.564C114.671 103.096 111.279 96.32 105.767 91.3167C107.951 87.9622 109.203 84.0905 109.203 79.9631C109.203 67.1894 97.2643 56.8344 82.538 56.8344C78.5864 56.8344 74.84 57.5857 71.4663 58.9243C65.8245 54.6714 58.4635 52.0916 50.4038 52.0916C40.5427 52.0916 31.7248 55.9473 25.8304 62.0119C22.449 61.2756 18.9143 60.8803 15.2695 60.8803C-8.62032 60.8803 -27.9883 77.6793 -27.9883 98.4033C-27.9883 99.86 -27.8825 101.294 -27.6967 102.707C-40.113 106.563 -49 116.855 -49 128.952C-49 144.347 -34.6128 156.827 -16.8647 156.827C-14.154 156.827 -11.5243 156.532 -9.01018 155.984C-1.74962 167.865 12.6463 175.962 29.2269 175.962C42.235 175.962 53.891 170.976 61.8222 163.095C67.4164 167.193 74.6413 169.667 82.5369 169.667C94.0849 169.667 104.206 164.38 109.871 156.446C111.429 156.693 113.033 156.828 114.671 156.828C129.399 156.828 141.336 146.471 141.336 133.697C141.336 120.919 129.397 110.564 114.671 110.564Z" fill="white"/>
<path d="M216.306 110.694V110.693C216.306 103.225 212.914 96.4497 207.402 91.4465C209.585 88.0919 210.838 84.2203 210.838 80.0929C210.838 67.3192 198.899 56.9641 184.173 56.9641C180.221 56.9641 176.475 57.7154 173.101 59.0541C167.459 54.8012 160.098 52.2213 152.039 52.2213C142.177 52.2213 133.36 56.0771 127.465 62.1417C124.084 61.4054 120.549 61.0101 116.904 61.0101C93.0144 61.0101 73.6465 77.809 73.6465 98.5331C73.6465 99.9898 73.7523 101.424 73.9381 102.837C61.5218 106.692 52.6348 116.985 52.6348 129.082C52.6348 144.477 67.022 156.956 84.77 156.956C87.4807 156.956 90.1104 156.662 92.6246 156.114C99.8852 167.995 114.281 176.092 130.862 176.092C143.87 176.092 155.526 171.105 163.457 163.224C169.051 167.323 176.276 169.797 184.172 169.797C195.72 169.797 205.841 164.509 211.505 156.576C213.064 156.822 214.668 156.957 216.306 156.957C231.033 156.957 242.971 146.6 242.971 133.827C242.971 121.049 231.032 110.694 216.306 110.694Z" fill="white"/>
<path d="M216.306 203.603V203.602C216.306 196.134 212.914 189.358 207.402 184.355C209.585 181 210.838 177.129 210.838 173.001C210.838 160.228 198.899 149.873 184.173 149.873C180.221 149.873 176.475 150.624 173.101 151.963C167.459 147.71 160.098 145.13 152.039 145.13C142.177 145.13 133.36 148.986 127.465 155.05C124.084 154.314 120.549 153.919 116.904 153.919C93.0144 153.919 73.6465 170.717 73.6465 191.442C73.6465 192.898 73.7523 194.332 73.9381 195.745C61.5218 199.601 52.6348 209.893 52.6348 221.99C52.6348 237.385 67.022 249.865 84.77 249.865C87.4807 249.865 90.1104 249.571 92.6246 249.023C99.8852 260.904 114.281 269 130.862 269C143.87 269 155.526 264.014 163.457 256.133C169.051 260.231 176.276 262.705 184.172 262.705C195.72 262.705 205.841 257.418 211.505 249.484C213.064 249.731 214.668 249.866 216.306 249.866C231.033 249.866 242.971 239.509 242.971 226.735C242.971 213.958 231.032 203.603 216.306 203.603Z" fill="white"/>
<path d="M216.306 296.511V296.51C216.306 289.042 212.914 282.267 207.402 277.263C209.585 273.909 210.838 270.037 210.838 265.91C210.838 253.136 198.899 242.781 184.173 242.781C180.221 242.781 176.475 243.532 173.101 244.871C167.459 240.618 160.098 238.038 152.039 238.038C142.177 238.038 133.36 241.894 127.465 247.959C124.084 247.222 120.549 246.827 116.904 246.827C93.0144 246.827 73.6465 263.626 73.6465 284.35C73.6465 285.807 73.7523 287.241 73.9381 288.654C61.5218 292.509 52.6348 302.801 52.6348 314.899C52.6348 330.294 67.022 342.773 84.77 342.773C87.4807 342.773 90.1104 342.479 92.6246 341.931C99.8852 353.812 114.281 361.909 130.862 361.909C143.87 361.909 155.526 356.922 163.457 349.041C169.051 353.14 176.276 355.613 184.172 355.613C195.72 355.613 205.841 350.326 211.505 342.393C213.064 342.639 214.668 342.774 216.306 342.774C231.033 342.774 242.971 332.417 242.971 319.644C242.971 306.866 231.032 296.511 216.306 296.511Z" fill="white"/>
<path d="M395.634 110.564V110.564C395.634 103.096 392.242 96.32 386.73 91.3167C388.913 87.9622 390.166 84.0905 390.166 79.9631C390.166 67.1894 378.227 56.8344 363.501 56.8344C359.549 56.8344 355.803 57.5857 352.429 58.9243C346.787 54.6714 339.426 52.0916 331.367 52.0916C321.506 52.0916 312.688 55.9473 306.793 62.0119C303.412 61.2756 299.877 60.8803 296.232 60.8803C272.343 60.8803 252.975 77.6793 252.975 98.4033C252.975 99.86 253.08 101.294 253.266 102.707C240.85 106.563 231.963 116.855 231.963 128.952C231.963 144.347 246.35 156.827 264.098 156.827C266.809 156.827 269.439 156.532 271.953 155.984C279.213 167.865 293.609 175.962 310.19 175.962C323.198 175.962 334.854 170.976 342.785 163.095C348.379 167.193 355.604 169.667 363.5 169.667C375.048 169.667 385.169 164.38 390.834 156.446C392.392 156.693 393.996 156.828 395.634 156.828C410.361 156.828 422.299 146.471 422.299 133.697C422.299 120.919 410.36 110.564 395.634 110.564Z" fill="white"/>
<path d="M395.634 203.473V203.472C395.634 196.004 392.242 189.228 386.73 184.225C388.913 180.871 390.166 176.999 390.166 172.872C390.166 160.098 378.227 149.743 363.501 149.743C359.549 149.743 355.803 150.494 352.429 151.833C346.787 147.58 339.426 145 331.367 145C321.506 145 312.688 148.856 306.793 154.92C303.412 154.184 299.877 153.789 296.232 153.789C272.343 153.789 252.975 170.588 252.975 191.312C252.975 192.768 253.08 194.203 253.266 195.615C240.85 199.471 231.963 209.763 231.963 221.861C231.963 237.255 246.35 249.735 264.098 249.735C266.809 249.735 269.439 249.441 271.953 248.893C279.213 260.774 293.609 268.87 310.19 268.87C323.198 268.87 334.854 263.884 342.785 256.003C348.379 260.101 355.604 262.575 363.5 262.575C375.048 262.575 385.169 257.288 390.834 249.355C392.392 249.601 393.996 249.736 395.634 249.736C410.361 249.736 422.299 239.379 422.299 226.605C422.299 213.828 410.36 203.473 395.634 203.473Z" fill="white"/>
<path d="M395.634 296.381V296.38C395.634 288.912 392.242 282.137 386.73 277.134C388.913 273.779 390.166 269.907 390.166 265.78C390.166 253.006 378.227 242.651 363.501 242.651C359.549 242.651 355.803 243.403 352.429 244.741C346.787 240.488 339.426 237.908 331.367 237.908C321.506 237.908 312.688 241.764 306.793 247.829C303.412 247.092 299.877 246.697 296.232 246.697C272.343 246.697 252.975 263.496 252.975 284.22C252.975 285.677 253.08 287.111 253.266 288.524C240.85 292.379 231.963 302.672 231.963 314.769C231.963 330.164 246.35 342.643 264.098 342.643C266.809 342.643 269.439 342.349 271.953 341.801C279.213 353.682 293.609 361.779 310.19 361.779C323.198 361.779 334.854 356.792 342.785 348.911C348.379 353.01 355.604 355.484 363.5 355.484C375.048 355.484 385.169 350.197 390.834 342.263C392.392 342.509 393.996 342.644 395.634 342.644C410.361 342.644 422.299 332.288 422.299 319.514C422.299 306.736 410.36 296.381 395.634 296.381Z" fill="white"/>
<path d="M114.671 110.564V110.564C114.671 103.096 111.279 96.32 105.767 91.3167C107.951 87.9622 109.203 84.0905 109.203 79.9631C109.203 67.1894 97.2643 56.8344 82.538 56.8344C78.5864 56.8344 74.84 57.5857 71.4663 58.9243C65.8245 54.6714 58.4635 52.0916 50.4038 52.0916C40.5427 52.0916 31.7248 55.9473 25.8304 62.0119C22.449 61.2756 18.9143 60.8803 15.2695 60.8803C-8.62032 60.8803 -27.9883 77.6793 -27.9883 98.4033C-27.9883 99.86 -27.8825 101.294 -27.6967 102.707C-40.113 106.563 -49 116.855 -49 128.952C-49 144.347 -34.6128 156.827 -16.8647 156.827C-14.154 156.827 -11.5243 156.532 -9.01018 155.984C-1.74962 167.865 12.6463 175.962 29.2269 175.962C42.235 175.962 53.891 170.976 61.8222 163.095C67.4164 167.193 74.6413 169.667 82.5369 169.667C94.0849 169.667 104.206 164.38 109.871 156.446C111.429 156.693 113.033 156.828 114.671 156.828C129.399 156.828 141.336 146.471 141.336 133.697C141.336 120.919 129.397 110.564 114.671 110.564Z" fill="white"/>
<path d="M114.671 203.473V203.472C114.671 196.004 111.279 189.228 105.767 184.225C107.951 180.871 109.203 176.999 109.203 172.872C109.203 160.098 97.2643 149.743 82.538 149.743C78.5864 149.743 74.84 150.494 71.4663 151.833C65.8245 147.58 58.4635 145 50.4038 145C40.5427 145 31.7248 148.856 25.8304 154.92C22.449 154.184 18.9143 153.789 15.2695 153.789C-8.62032 153.789 -27.9883 170.588 -27.9883 191.312C-27.9883 192.768 -27.8825 194.203 -27.6967 195.615C-40.113 199.471 -49 209.763 -49 221.861C-49 237.255 -34.6128 249.735 -16.8647 249.735C-14.154 249.735 -11.5243 249.441 -9.01018 248.893C-1.74962 260.774 12.6463 268.87 29.2269 268.87C42.235 268.87 53.891 263.884 61.8222 256.003C67.4164 260.101 74.6413 262.575 82.5369 262.575C94.0849 262.575 104.206 257.288 109.871 249.355C111.429 249.601 113.033 249.736 114.671 249.736C129.399 249.736 141.336 239.379 141.336 226.605C141.336 213.828 129.397 203.473 114.671 203.473Z" fill="white"/>
<path d="M114.671 296.381V296.38C114.671 288.912 111.279 282.137 105.767 277.134C107.951 273.779 109.203 269.907 109.203 265.78C109.203 253.006 97.2643 242.651 82.538 242.651C78.5864 242.651 74.84 243.403 71.4663 244.741C65.8245 240.488 58.4635 237.908 50.4038 237.908C40.5427 237.908 31.7248 241.764 25.8304 247.829C22.449 247.092 18.9143 246.697 15.2695 246.697C-8.62032 246.697 -27.9883 263.496 -27.9883 284.22C-27.9883 285.677 -27.8825 287.111 -27.6967 288.524C-40.113 292.379 -49 302.672 -49 314.769C-49 330.164 -34.6128 342.643 -16.8647 342.643C-14.154 342.643 -11.5243 342.349 -9.01018 341.801C-1.74962 353.682 12.6463 361.779 29.2269 361.779C42.235 361.779 53.891 356.792 61.8222 348.911C67.4164 353.01 74.6413 355.484 82.5369 355.484C94.0849 355.484 104.206 350.197 109.871 342.263C111.429 342.509 113.033 342.644 114.671 342.644C129.399 342.644 141.336 332.288 141.336 319.514C141.336 306.736 129.397 296.381 114.671 296.381Z" fill="white"/>
</svg>
