<svg width="375" height="206" viewBox="0 0 375 206" fill="none" xmlns="http://www.w3.org/2000/svg">
<g clip-path="url(#clip0_168_6775)">
<g filter="url(#filter0_d_168_6775)">
<g clip-path="url(#clip1_168_6775)">
<rect width="375" height="206" rx="16" fill="#C8EEFF"/>
<path d="M203.307 102.603V102.602C203.307 95.1337 199.915 88.3581 194.403 83.3548C196.586 80.0002 197.839 76.1286 197.839 72.0012C197.839 59.2275 185.9 48.8725 171.174 48.8725C167.222 48.8725 163.476 49.6238 160.102 50.9624C154.46 46.7095 147.099 44.1296 139.04 44.1296C129.178 44.1296 120.361 47.9854 114.466 54.05C111.085 53.3137 107.55 52.9184 103.905 52.9184C80.0154 52.9184 60.6474 69.7174 60.6474 90.4414C60.6474 91.8981 60.7533 93.3323 60.939 94.745C48.5227 98.6007 39.6357 108.893 39.6357 120.99C39.6357 136.385 54.0229 148.865 71.771 148.865C74.4817 148.865 77.1114 148.571 79.6256 148.023C86.8861 159.904 101.282 168 117.863 168C130.871 168 142.527 163.014 150.458 155.133C156.052 159.231 163.277 161.705 171.173 161.705C182.721 161.705 192.842 156.418 198.506 148.484C200.065 148.731 201.669 148.866 203.307 148.866C218.034 148.866 229.972 138.509 229.972 125.735C229.972 112.958 218.033 102.603 203.307 102.603Z" fill="white"/>
<path d="M312.335 102.473V102.472C312.335 95.0041 308.943 88.2284 303.43 83.2252C305.614 79.8706 306.867 75.999 306.867 71.8716C306.867 59.0978 294.928 48.7428 280.202 48.7428C276.25 48.7428 272.504 49.4941 269.13 50.8328C263.488 46.5799 256.127 44 248.067 44C238.206 44 229.388 47.8558 223.494 53.9204C220.113 53.1841 216.578 52.7888 212.933 52.7888C189.043 52.7888 169.675 69.5877 169.675 90.3118C169.675 91.7685 169.781 93.2027 169.967 94.6153C157.551 98.4711 148.664 108.763 148.664 120.861C148.664 136.255 163.051 148.735 180.799 148.735C183.51 148.735 186.139 148.441 188.653 147.893C195.914 159.774 210.31 167.87 226.89 167.87C239.899 167.87 251.555 162.884 259.486 155.003C265.08 159.101 272.305 161.575 280.2 161.575C291.748 161.575 301.87 156.288 307.534 148.355C309.093 148.601 310.696 148.736 312.335 148.736C327.062 148.736 339 138.379 339 125.605C339 112.828 327.061 102.473 312.335 102.473Z" fill="white"/>
<path d="M382.635 102.473V102.472C382.635 95.0041 379.243 88.2284 373.731 83.2252C375.914 79.8706 377.167 75.999 377.167 71.8716C377.167 59.0978 365.228 48.7428 350.502 48.7428C346.55 48.7428 342.804 49.4941 339.43 50.8328C333.788 46.5799 326.427 44 318.368 44C308.507 44 299.689 47.8558 293.794 53.9204C290.413 53.1841 286.878 52.7888 283.233 52.7888C259.344 52.7888 239.976 69.5877 239.976 90.3118C239.976 91.7685 240.081 93.2027 240.267 94.6153C227.851 98.4711 218.964 108.763 218.964 120.861C218.964 136.255 233.351 148.735 251.099 148.735C253.81 148.735 256.44 148.441 258.954 147.893C266.214 159.774 280.61 167.87 297.191 167.87C310.199 167.87 321.855 162.884 329.786 155.003C335.38 159.101 342.605 161.575 350.501 161.575C362.049 161.575 372.17 156.288 377.835 148.355C379.393 148.601 380.997 148.736 382.635 148.736C397.362 148.736 409.3 138.379 409.3 125.605C409.3 112.828 397.361 102.473 382.635 102.473Z" fill="white"/>
<path d="M382.635 102.473V102.472C382.635 95.0041 379.243 88.2284 373.731 83.2252C375.914 79.8706 377.167 75.999 377.167 71.8716C377.167 59.0978 365.228 48.7428 350.502 48.7428C346.55 48.7428 342.804 49.4941 339.43 50.8328C333.788 46.5799 326.427 44 318.368 44C308.507 44 299.689 47.8558 293.794 53.9204C290.413 53.1841 286.878 52.7888 283.233 52.7888C259.344 52.7888 239.976 69.5877 239.976 90.3118C239.976 91.7685 240.081 93.2027 240.267 94.6153C227.851 98.4711 218.964 108.763 218.964 120.861C218.964 136.255 233.351 148.735 251.099 148.735C253.81 148.735 256.44 148.441 258.954 147.893C266.214 159.774 280.61 167.87 297.191 167.87C310.199 167.87 321.855 162.884 329.786 155.003C335.38 159.101 342.605 161.575 350.501 161.575C362.049 161.575 372.17 156.288 377.835 148.355C379.393 148.601 380.997 148.736 382.635 148.736C397.362 148.736 409.3 138.379 409.3 125.605C409.3 112.828 397.361 102.473 382.635 102.473Z" fill="white"/>
<path d="M101.671 102.473V102.472C101.671 95.0041 98.279 88.2284 92.7668 83.2252C94.9505 79.8706 96.2033 75.999 96.2033 71.8716C96.2033 59.0978 84.2643 48.7428 69.538 48.7428C65.5864 48.7428 61.84 49.4941 58.4663 50.8328C52.8245 46.5799 45.4635 44 37.4038 44C27.5427 44 18.7248 47.8558 12.8304 53.9204C9.44903 53.1841 5.91433 52.7888 2.26946 52.7888C-21.6203 52.7888 -40.9883 69.5877 -40.9883 90.3118C-40.9883 91.7685 -40.8825 93.2027 -40.6967 94.6153C-53.113 98.4711 -62 108.763 -62 120.861C-62 136.255 -47.6128 148.735 -29.8647 148.735C-27.154 148.735 -24.5243 148.441 -22.0102 147.893C-14.7496 159.774 -0.353747 167.87 16.2269 167.87C29.235 167.87 40.891 162.884 48.8222 155.003C54.4164 159.101 61.6413 161.575 69.5369 161.575C81.0849 161.575 91.2063 156.288 96.8707 148.355C98.4291 148.601 100.033 148.736 101.671 148.736C116.399 148.736 128.336 138.379 128.336 125.605C128.336 112.828 116.397 102.473 101.671 102.473Z" fill="white"/>
<path d="M203.306 137.323V137.322C203.306 129.854 199.914 123.078 194.402 118.075C196.586 114.72 197.839 110.849 197.839 106.721C197.839 93.9475 185.9 83.5925 171.173 83.5925C167.222 83.5925 163.475 84.3438 160.102 85.6824C154.46 81.4295 147.099 78.8497 139.039 78.8497C129.178 78.8497 120.36 82.7054 114.466 88.77C111.084 88.0337 107.55 87.6384 103.905 87.6384C80.0149 87.6384 60.6469 104.437 60.6469 125.161C60.6469 126.618 60.7528 128.052 60.9386 129.465C48.5223 133.321 39.6353 143.613 39.6353 155.71C39.6353 171.105 54.0225 183.585 71.7705 183.585C74.4812 183.585 77.1109 183.291 79.6251 182.743C86.8856 194.624 101.282 202.72 117.862 202.72C130.87 202.72 142.526 197.734 150.457 189.853C156.052 193.951 163.277 196.425 171.172 196.425C182.72 196.425 192.842 191.138 198.506 183.204C200.064 183.451 201.668 183.586 203.306 183.586C218.034 183.586 229.972 173.229 229.972 160.455C229.972 147.678 218.033 137.323 203.306 137.323Z" fill="white"/>
<path d="M312.335 137.193V137.192C312.335 129.724 308.943 122.948 303.431 117.945C305.615 114.591 306.867 110.719 306.867 106.592C306.867 93.8178 294.928 83.4628 280.202 83.4628C276.251 83.4628 272.504 84.2141 269.13 85.5528C263.489 81.2999 256.128 78.72 248.068 78.72C238.207 78.72 229.389 82.5758 223.494 88.6404C220.113 87.9041 216.578 87.5088 212.934 87.5088C189.044 87.5088 169.676 104.308 169.676 125.032C169.676 126.488 169.782 127.923 169.967 129.335C157.551 133.191 148.664 143.483 148.664 155.581C148.664 170.975 163.051 183.455 180.799 183.455C183.51 183.455 186.14 183.161 188.654 182.613C195.914 194.494 210.31 202.59 226.891 202.59C239.899 202.59 251.555 197.604 259.486 189.723C265.08 193.821 272.305 196.295 280.201 196.295C291.749 196.295 301.87 191.008 307.535 183.075C309.093 183.321 310.697 183.456 312.335 183.456C327.063 183.456 339 173.099 339 160.325C339 147.548 327.061 137.193 312.335 137.193Z" fill="white"/>
<path d="M382.634 137.193V137.192C382.634 129.724 379.242 122.948 373.73 117.945C375.914 114.591 377.167 110.719 377.167 106.592C377.167 93.8178 365.228 83.4628 350.501 83.4628C346.55 83.4628 342.803 84.2141 339.43 85.5528C333.788 81.2999 326.427 78.72 318.367 78.72C308.506 78.72 299.688 82.5758 293.794 88.6404C290.412 87.9041 286.878 87.5088 283.233 87.5088C259.343 87.5088 239.975 104.308 239.975 125.032C239.975 126.488 240.081 127.923 240.267 129.335C227.85 133.191 218.963 143.483 218.963 155.581C218.963 170.975 233.351 183.455 251.099 183.455C253.809 183.455 256.439 183.161 258.953 182.613C266.214 194.494 280.61 202.59 297.19 202.59C310.198 202.59 321.854 197.604 329.786 189.723C335.38 193.821 342.605 196.295 350.5 196.295C362.048 196.295 372.17 191.008 377.834 183.075C379.392 183.321 380.996 183.456 382.634 183.456C397.362 183.456 409.3 173.099 409.3 160.325C409.3 147.548 397.361 137.193 382.634 137.193Z" fill="white"/>
<path d="M101.671 137.193V137.192C101.671 129.724 98.279 122.948 92.7668 117.945C94.9505 114.591 96.2033 110.719 96.2033 106.592C96.2033 93.8178 84.2643 83.4628 69.538 83.4628C65.5864 83.4628 61.84 84.2141 58.4663 85.5528C52.8245 81.2999 45.4635 78.72 37.4038 78.72C27.5427 78.72 18.7248 82.5758 12.8304 88.6404C9.44903 87.9041 5.91433 87.5088 2.26946 87.5088C-21.6203 87.5088 -40.9883 104.308 -40.9883 125.032C-40.9883 126.488 -40.8825 127.923 -40.6967 129.335C-53.113 133.191 -62 143.483 -62 155.581C-62 170.975 -47.6128 183.455 -29.8647 183.455C-27.154 183.455 -24.5243 183.161 -22.0102 182.613C-14.7496 194.494 -0.353747 202.59 16.2269 202.59C29.235 202.59 40.891 197.604 48.8222 189.723C54.4164 193.821 61.6413 196.295 69.5369 196.295C81.0849 196.295 91.2063 191.008 96.8707 183.075C98.4291 183.321 100.033 183.456 101.671 183.456C116.399 183.456 128.336 173.099 128.336 160.325C128.336 147.548 116.397 137.193 101.671 137.193Z" fill="white"/>
<path d="M203.306 154.694V154.693C203.306 147.225 199.914 140.45 194.402 135.446C196.586 132.092 197.839 128.22 197.839 124.093C197.839 111.319 185.9 100.964 171.173 100.964C167.222 100.964 163.475 101.715 160.102 103.054C154.46 98.8011 147.099 96.2213 139.039 96.2213C129.178 96.2213 120.36 100.077 114.466 106.142C111.084 105.405 107.55 105.01 103.905 105.01C80.0149 105.01 60.6469 121.809 60.6469 142.533C60.6469 143.99 60.7528 145.424 60.9386 146.837C48.5223 150.692 39.6353 160.985 39.6353 173.082C39.6353 188.477 54.0225 200.956 71.7705 200.956C74.4812 200.956 77.1109 200.662 79.6251 200.114C86.8856 211.995 101.282 220.092 117.862 220.092C130.87 220.092 142.526 215.105 150.457 207.224C156.052 211.323 163.277 213.797 171.172 213.797C182.72 213.797 192.842 208.509 198.506 200.576C200.064 200.822 201.668 200.957 203.306 200.957C218.034 200.957 229.972 190.6 229.972 177.827C229.972 165.049 218.033 154.694 203.306 154.694Z" fill="white"/>
<path d="M312.335 154.565V154.564C312.335 147.096 308.943 140.32 303.43 135.317C305.614 131.962 306.867 128.091 306.867 123.963C306.867 111.189 294.928 100.834 280.202 100.834C276.25 100.834 272.504 101.586 269.13 102.924C263.488 98.6714 256.127 96.0916 248.067 96.0916C238.206 96.0916 229.388 99.9473 223.494 106.012C220.113 105.276 216.578 104.88 212.933 104.88C189.043 104.88 169.675 121.679 169.675 142.403C169.675 143.86 169.781 145.294 169.967 146.707C157.551 150.563 148.664 160.855 148.664 172.952C148.664 188.347 163.051 200.827 180.799 200.827C183.51 200.827 186.139 200.532 188.653 199.984C195.914 211.865 210.31 219.962 226.89 219.962C239.899 219.962 251.555 214.976 259.486 207.095C265.08 211.193 272.305 213.667 280.2 213.667C291.748 213.667 301.87 208.38 307.534 200.446C309.093 200.693 310.696 200.828 312.335 200.828C327.062 200.828 339 190.471 339 177.697C339 164.919 327.061 154.565 312.335 154.565Z" fill="white"/>
<path d="M382.634 154.565V154.564C382.634 147.096 379.242 140.32 373.73 135.317C375.914 131.962 377.167 128.091 377.167 123.963C377.167 111.189 365.228 100.834 350.501 100.834C346.55 100.834 342.803 101.586 339.43 102.924C333.788 98.6714 326.427 96.0916 318.367 96.0916C308.506 96.0916 299.688 99.9473 293.794 106.012C290.412 105.276 286.878 104.88 283.233 104.88C259.343 104.88 239.975 121.679 239.975 142.403C239.975 143.86 240.081 145.294 240.267 146.707C227.85 150.563 218.963 160.855 218.963 172.952C218.963 188.347 233.351 200.827 251.099 200.827C253.809 200.827 256.439 200.532 258.953 199.984C266.214 211.865 280.61 219.962 297.19 219.962C310.198 219.962 321.854 214.976 329.786 207.095C335.38 211.193 342.605 213.667 350.5 213.667C362.048 213.667 372.17 208.38 377.834 200.446C379.392 200.693 380.996 200.828 382.634 200.828C397.362 200.828 409.3 190.471 409.3 177.697C409.3 164.919 397.361 154.565 382.634 154.565Z" fill="white"/>
<path d="M101.671 154.565V154.564C101.671 147.096 98.279 140.32 92.7668 135.317C94.9505 131.962 96.2033 128.091 96.2033 123.963C96.2033 111.189 84.2643 100.834 69.538 100.834C65.5864 100.834 61.84 101.586 58.4663 102.924C52.8245 98.6714 45.4635 96.0916 37.4038 96.0916C27.5427 96.0916 18.7248 99.9473 12.8304 106.012C9.44903 105.276 5.91433 104.88 2.26946 104.88C-21.6203 104.88 -40.9883 121.679 -40.9883 142.403C-40.9883 143.86 -40.8825 145.294 -40.6967 146.707C-53.113 150.563 -62 160.855 -62 172.952C-62 188.347 -47.6128 200.827 -29.8647 200.827C-27.154 200.827 -24.5243 200.532 -22.0102 199.984C-14.7496 211.865 -0.353747 219.962 16.2269 219.962C29.235 219.962 40.891 214.976 48.8222 207.095C54.4164 211.193 61.6413 213.667 69.5369 213.667C81.0849 213.667 91.2063 208.38 96.8707 200.446C98.4291 200.693 100.033 200.828 101.671 200.828C116.399 200.828 128.336 190.471 128.336 177.697C128.336 164.919 116.397 154.565 101.671 154.565Z" fill="white"/>
<path d="M203.306 154.694V154.693C203.306 147.225 199.914 140.45 194.402 135.446C196.586 132.092 197.839 128.22 197.839 124.093C197.839 111.319 185.9 100.964 171.173 100.964C167.222 100.964 163.475 101.715 160.102 103.054C154.46 98.8012 147.099 96.2213 139.039 96.2213C129.178 96.2213 120.36 100.077 114.466 106.142C111.084 105.405 107.55 105.01 103.905 105.01C80.0149 105.01 60.6469 121.809 60.6469 142.533C60.6469 143.99 60.7528 145.424 60.9386 146.837C48.5223 150.692 39.6353 160.985 39.6353 173.082C39.6353 188.477 54.0225 200.956 71.7705 200.956C74.4812 200.956 77.1109 200.662 79.6251 200.114C86.8856 211.995 101.282 220.092 117.862 220.092C130.87 220.092 142.526 215.105 150.457 207.224C156.052 211.323 163.277 213.797 171.172 213.797C182.72 213.797 192.842 208.509 198.506 200.576C200.064 200.822 201.668 200.957 203.306 200.957C218.034 200.957 229.972 190.6 229.972 177.827C229.972 165.049 218.033 154.694 203.306 154.694Z" fill="white"/>
<path d="M382.634 154.564V154.564C382.634 147.096 379.242 140.32 373.73 135.317C375.914 131.962 377.167 128.091 377.167 123.963C377.167 111.189 365.228 100.834 350.501 100.834C346.55 100.834 342.803 101.586 339.43 102.924C333.788 98.6714 326.427 96.0916 318.367 96.0916C308.506 96.0916 299.688 99.9473 293.794 106.012C290.412 105.276 286.878 104.88 283.233 104.88C259.343 104.88 239.975 121.679 239.975 142.403C239.975 143.86 240.081 145.294 240.267 146.707C227.85 150.563 218.963 160.855 218.963 172.952C218.963 188.347 233.351 200.827 251.099 200.827C253.809 200.827 256.439 200.532 258.953 199.984C266.214 211.865 280.61 219.962 297.19 219.962C310.198 219.962 321.854 214.976 329.786 207.095C335.38 211.193 342.605 213.667 350.5 213.667C362.048 213.667 372.17 208.38 377.834 200.446C379.392 200.693 380.996 200.828 382.634 200.828C397.362 200.828 409.3 190.471 409.3 177.697C409.3 164.919 397.361 154.564 382.634 154.564Z" fill="white"/>
<path d="M101.671 154.564V154.564C101.671 147.096 98.279 140.32 92.7668 135.317C94.9505 131.962 96.2033 128.091 96.2033 123.963C96.2033 111.189 84.2643 100.834 69.538 100.834C65.5864 100.834 61.84 101.586 58.4663 102.924C52.8245 98.6714 45.4635 96.0916 37.4038 96.0916C27.5427 96.0916 18.7248 99.9473 12.8304 106.012C9.44903 105.276 5.91433 104.88 2.26946 104.88C-21.6203 104.88 -40.9883 121.679 -40.9883 142.403C-40.9883 143.86 -40.8825 145.294 -40.6967 146.707C-53.113 150.563 -62 160.855 -62 172.952C-62 188.347 -47.6128 200.827 -29.8647 200.827C-27.154 200.827 -24.5243 200.532 -22.0102 199.984C-14.7496 211.865 -0.353747 219.962 16.2269 219.962C29.235 219.962 40.891 214.976 48.8222 207.095C54.4164 211.193 61.6413 213.667 69.5369 213.667C81.0849 213.667 91.2063 208.38 96.8707 200.446C98.4291 200.693 100.033 200.828 101.671 200.828C116.399 200.828 128.336 190.471 128.336 177.697C128.336 164.919 116.397 154.564 101.671 154.564Z" fill="white"/>
</g>
</g>
</g>
<defs>
<filter id="filter0_d_168_6775" x="-33" y="-9" width="441" height="272" filterUnits="userSpaceOnUse" color-interpolation-filters="sRGB">
<feFlood flood-opacity="0" result="BackgroundImageFix"/>
<feColorMatrix in="SourceAlpha" type="matrix" values="0 0 0 0 0 0 0 0 0 0 0 0 0 0 0 0 0 0 127 0" result="hardAlpha"/>
<feMorphology radius="11" operator="erode" in="SourceAlpha" result="effect1_dropShadow_168_6775"/>
<feOffset dy="24"/>
<feGaussianBlur stdDeviation="22"/>
<feComposite in2="hardAlpha" operator="out"/>
<feColorMatrix type="matrix" values="0 0 0 0 0.709804 0 0 0 0 0.717647 0 0 0 0 0.752941 0 0 0 0.3 0"/>
<feBlend mode="normal" in2="BackgroundImageFix" result="effect1_dropShadow_168_6775"/>
<feBlend mode="normal" in="SourceGraphic" in2="effect1_dropShadow_168_6775" result="shape"/>
</filter>
<clipPath id="clip0_168_6775">
<rect width="375" height="206" fill="white"/>
</clipPath>
<clipPath id="clip1_168_6775">
<rect width="375" height="206" rx="16" fill="white"/>
</clipPath>
</defs>
</svg>
