<svg width="375" height="145" viewBox="0 0 375 145" fill="none" xmlns="http://www.w3.org/2000/svg">
<path d="M203.307 58.6026V58.6016C203.307 51.1337 199.915 44.3581 194.403 39.3548C196.586 36.0002 197.839 32.1286 197.839 28.0012C197.839 15.2275 185.9 4.87247 171.174 4.87247C167.222 4.87247 163.476 5.62377 160.102 6.96241C154.46 2.7095 147.099 0.129639 139.04 0.129639C129.178 0.129639 120.361 3.98539 114.466 10.05C111.085 9.31371 107.55 8.91839 103.905 8.91839C80.0154 8.91839 60.6474 25.7174 60.6474 46.4414C60.6474 47.8981 60.7533 49.3323 60.939 50.745C48.5227 54.6007 39.6357 64.8929 39.6357 76.9903C39.6357 92.3851 54.0229 104.865 71.771 104.865C74.4817 104.865 77.1114 104.571 79.6256 104.023C86.8861 115.904 101.282 124 117.863 124C130.871 124 142.527 119.014 150.458 111.133C156.052 115.231 163.277 117.705 171.173 117.705C182.721 117.705 192.842 112.418 198.506 104.484C200.065 104.731 201.669 104.866 203.307 104.866C218.034 104.866 229.972 94.5088 229.972 81.735C229.972 68.9576 218.033 58.6026 203.307 58.6026Z" fill="white"/>
<path d="M312.335 58.4729V58.472C312.335 51.0041 308.943 44.2284 303.431 39.2252C305.615 35.8706 306.867 31.999 306.867 27.8716C306.867 15.0978 294.928 4.74283 280.202 4.74283C276.251 4.74283 272.504 5.49413 269.13 6.83277C263.489 2.57986 256.128 0 248.068 0C238.207 0 229.389 3.85575 223.494 9.92037C220.113 9.18407 216.578 8.78875 212.934 8.78875C189.044 8.78875 169.676 25.5877 169.676 46.3118C169.676 47.7685 169.782 49.2027 169.967 50.6153C157.551 54.4711 148.664 64.7633 148.664 76.8607C148.664 92.2555 163.051 104.735 180.799 104.735C183.51 104.735 186.14 104.441 188.654 103.893C195.914 115.774 210.31 123.87 226.891 123.87C239.899 123.87 251.555 118.884 259.486 111.003C265.08 115.101 272.305 117.575 280.201 117.575C291.749 117.575 301.87 112.288 307.535 104.355C309.093 104.601 310.697 104.736 312.335 104.736C327.063 104.736 339 94.3791 339 81.6054C339 68.8279 327.061 58.4729 312.335 58.4729Z" fill="white"/>
<path d="M382.635 58.4729V58.472C382.635 51.0041 379.243 44.2284 373.731 39.2252C375.914 35.8706 377.167 31.999 377.167 27.8716C377.167 15.0978 365.228 4.74283 350.502 4.74283C346.55 4.74283 342.804 5.49413 339.43 6.83277C333.788 2.57986 326.427 0 318.368 0C308.507 0 299.689 3.85575 293.794 9.92037C290.413 9.18407 286.878 8.78875 283.233 8.78875C259.344 8.78875 239.976 25.5877 239.976 46.3118C239.976 47.7685 240.081 49.2027 240.267 50.6153C227.851 54.4711 218.964 64.7633 218.964 76.8607C218.964 92.2555 233.351 104.735 251.099 104.735C253.81 104.735 256.44 104.441 258.954 103.893C266.214 115.774 280.61 123.87 297.191 123.87C310.199 123.87 321.855 118.884 329.786 111.003C335.38 115.101 342.605 117.575 350.501 117.575C362.049 117.575 372.17 112.288 377.835 104.355C379.393 104.601 380.997 104.736 382.635 104.736C397.362 104.736 409.3 94.3791 409.3 81.6054C409.3 68.8279 397.361 58.4729 382.635 58.4729Z" fill="white"/>
<path d="M382.635 58.4729V58.472C382.635 51.0041 379.243 44.2284 373.731 39.2252C375.914 35.8706 377.167 31.999 377.167 27.8716C377.167 15.0978 365.228 4.74283 350.502 4.74283C346.55 4.74283 342.804 5.49413 339.43 6.83277C333.788 2.57986 326.427 0 318.368 0C308.507 0 299.689 3.85575 293.794 9.92037C290.413 9.18407 286.878 8.78875 283.233 8.78875C259.344 8.78875 239.976 25.5877 239.976 46.3118C239.976 47.7685 240.081 49.2027 240.267 50.6153C227.851 54.4711 218.964 64.7633 218.964 76.8607C218.964 92.2555 233.351 104.735 251.099 104.735C253.81 104.735 256.44 104.441 258.954 103.893C266.214 115.774 280.61 123.87 297.191 123.87C310.199 123.87 321.855 118.884 329.786 111.003C335.38 115.101 342.605 117.575 350.501 117.575C362.049 117.575 372.17 112.288 377.835 104.355C379.393 104.601 380.997 104.736 382.635 104.736C397.362 104.736 409.3 94.3791 409.3 81.6054C409.3 68.8279 397.361 58.4729 382.635 58.4729Z" fill="white"/>
<path d="M101.671 58.4729V58.472C101.671 51.0041 98.279 44.2284 92.7668 39.2252C94.9505 35.8706 96.2033 31.999 96.2033 27.8716C96.2033 15.0978 84.2643 4.74283 69.538 4.74283C65.5864 4.74283 61.84 5.49413 58.4663 6.83277C52.8245 2.57986 45.4635 0 37.4038 0C27.5427 0 18.7248 3.85575 12.8304 9.92037C9.44903 9.18407 5.91433 8.78875 2.26946 8.78875C-21.6203 8.78875 -40.9883 25.5877 -40.9883 46.3118C-40.9883 47.7685 -40.8825 49.2027 -40.6967 50.6153C-53.113 54.4711 -62 64.7633 -62 76.8607C-62 92.2555 -47.6128 104.735 -29.8647 104.735C-27.154 104.735 -24.5243 104.441 -22.0102 103.893C-14.7496 115.774 -0.353747 123.87 16.2269 123.87C29.235 123.87 40.891 118.884 48.8222 111.003C54.4164 115.101 61.6413 117.575 69.5369 117.575C81.0849 117.575 91.2063 112.288 96.8707 104.355C98.4291 104.601 100.033 104.736 101.671 104.736C116.399 104.736 128.336 94.3791 128.336 81.6054C128.336 68.8279 116.397 58.4729 101.671 58.4729Z" fill="white"/>
<path d="M203.307 93.3226V93.3216C203.307 85.8537 199.915 79.0781 194.403 74.0748C196.586 70.7203 197.839 66.8486 197.839 62.7212C197.839 49.9475 185.9 39.5925 171.174 39.5925C167.222 39.5925 163.476 40.3438 160.102 41.6824C154.46 37.4295 147.099 34.8497 139.04 34.8497C129.178 34.8497 120.361 38.7054 114.466 44.77C111.085 44.0337 107.55 43.6384 103.905 43.6384C80.0154 43.6384 60.6474 60.4374 60.6474 81.1615C60.6474 82.6181 60.7533 84.0524 60.939 85.465C48.5227 89.3207 39.6357 99.613 39.6357 111.71C39.6357 127.105 54.0229 139.585 71.771 139.585C74.4817 139.585 77.1114 139.291 79.6256 138.743C86.8861 150.624 101.282 158.72 117.863 158.72C130.871 158.72 142.527 153.734 150.458 145.853C156.052 149.951 163.277 152.425 171.173 152.425C182.721 152.425 192.842 147.138 198.506 139.204C200.065 139.451 201.669 139.586 203.307 139.586C218.034 139.586 229.972 129.229 229.972 116.455C229.972 103.678 218.033 93.3226 203.307 93.3226Z" fill="white"/>
<path d="M312.335 93.1929V93.1919C312.335 85.724 308.943 78.9484 303.431 73.9451C305.615 70.5906 306.867 66.7189 306.867 62.5915C306.867 49.8178 294.928 39.4628 280.202 39.4628C276.251 39.4628 272.504 40.2141 269.13 41.5527C263.489 37.2998 256.128 34.72 248.068 34.72C238.207 34.72 229.389 38.5757 223.494 44.6403C220.113 43.904 216.578 43.5087 212.934 43.5087C189.044 43.5087 169.676 60.3077 169.676 81.0318C169.676 82.4884 169.782 83.9227 169.967 85.3353C157.551 89.191 148.664 99.4833 148.664 111.581C148.664 126.975 163.051 139.455 180.799 139.455C183.51 139.455 186.14 139.161 188.654 138.613C195.914 150.494 210.31 158.59 226.891 158.59C239.899 158.59 251.555 153.604 259.486 145.723C265.08 149.821 272.305 152.295 280.201 152.295C291.749 152.295 301.87 147.008 307.535 139.075C309.093 139.321 310.697 139.456 312.335 139.456C327.063 139.456 339 129.099 339 116.325C339 103.548 327.061 93.1929 312.335 93.1929Z" fill="white"/>
<path d="M382.635 93.1929V93.1919C382.635 85.724 379.243 78.9484 373.731 73.9451C375.914 70.5906 377.167 66.7189 377.167 62.5915C377.167 49.8178 365.228 39.4628 350.502 39.4628C346.55 39.4628 342.804 40.2141 339.43 41.5527C333.788 37.2998 326.427 34.72 318.368 34.72C308.507 34.72 299.689 38.5757 293.794 44.6403C290.413 43.904 286.878 43.5087 283.233 43.5087C259.344 43.5087 239.976 60.3077 239.976 81.0318C239.976 82.4884 240.081 83.9227 240.267 85.3353C227.851 89.191 218.964 99.4833 218.964 111.581C218.964 126.975 233.351 139.455 251.099 139.455C253.81 139.455 256.44 139.161 258.954 138.613C266.214 150.494 280.61 158.59 297.191 158.59C310.199 158.59 321.855 153.604 329.786 145.723C335.38 149.821 342.605 152.295 350.501 152.295C362.049 152.295 372.17 147.008 377.835 139.075C379.393 139.321 380.997 139.456 382.635 139.456C397.362 139.456 409.3 129.099 409.3 116.325C409.3 103.548 397.361 93.1929 382.635 93.1929Z" fill="white"/>
<path d="M101.671 93.1929V93.1919C101.671 85.724 98.279 78.9484 92.7668 73.9451C94.9505 70.5906 96.2033 66.7189 96.2033 62.5915C96.2033 49.8178 84.2643 39.4628 69.538 39.4628C65.5864 39.4628 61.84 40.2141 58.4663 41.5527C52.8245 37.2998 45.4635 34.72 37.4038 34.72C27.5427 34.72 18.7248 38.5757 12.8304 44.6403C9.44903 43.904 5.91433 43.5087 2.26946 43.5087C-21.6203 43.5087 -40.9883 60.3077 -40.9883 81.0318C-40.9883 82.4884 -40.8825 83.9227 -40.6967 85.3353C-53.113 89.191 -62 99.4833 -62 111.581C-62 126.975 -47.6128 139.455 -29.8647 139.455C-27.154 139.455 -24.5243 139.161 -22.0102 138.613C-14.7496 150.494 -0.353747 158.59 16.2269 158.59C29.235 158.59 40.891 153.604 48.8222 145.723C54.4164 149.821 61.6413 152.295 69.5369 152.295C81.0849 152.295 91.2063 147.008 96.8707 139.075C98.4291 139.321 100.033 139.456 101.671 139.456C116.399 139.456 128.336 129.099 128.336 116.325C128.336 103.548 116.397 93.1929 101.671 93.1929Z" fill="white"/>
<path d="M203.306 110.694V110.693C203.306 103.225 199.914 96.4497 194.402 91.4464C196.585 88.0919 197.838 84.2202 197.838 80.0928C197.838 67.3191 185.899 56.9641 171.173 56.9641C167.221 56.9641 163.475 57.7154 160.101 59.054C154.459 54.8011 147.098 52.2213 139.039 52.2213C129.177 52.2213 120.36 56.077 114.465 62.1416C111.084 61.4053 107.549 61.01 103.904 61.01C80.0144 61.01 60.6465 77.809 60.6465 98.533C60.6465 99.9897 60.7523 101.424 60.9381 102.837C48.5218 106.692 39.6348 116.985 39.6348 129.082C39.6348 144.477 54.022 156.956 71.77 156.956C74.4807 156.956 77.1104 156.662 79.6246 156.114C86.8852 167.995 101.281 176.092 117.862 176.092C130.87 176.092 142.526 171.105 150.457 163.224C156.051 167.323 163.276 169.797 171.172 169.797C182.72 169.797 192.841 164.509 198.505 156.576C200.064 156.822 201.668 156.957 203.306 156.957C218.033 156.957 229.971 146.6 229.971 133.827C229.971 121.049 218.032 110.694 203.306 110.694Z" fill="white"/>
<path d="M312.335 110.564V110.564C312.335 103.096 308.943 96.32 303.431 91.3167C305.615 87.9622 306.867 84.0905 306.867 79.9631C306.867 67.1894 294.928 56.8344 280.202 56.8344C276.251 56.8344 272.504 57.5857 269.13 58.9243C263.489 54.6714 256.128 52.0916 248.068 52.0916C238.207 52.0916 229.389 55.9473 223.494 62.0119C220.113 61.2756 216.578 60.8803 212.934 60.8803C189.044 60.8803 169.676 77.6793 169.676 98.4033C169.676 99.86 169.782 101.294 169.967 102.707C157.551 106.563 148.664 116.855 148.664 128.952C148.664 144.347 163.051 156.827 180.799 156.827C183.51 156.827 186.14 156.532 188.654 155.984C195.914 167.865 210.31 175.962 226.891 175.962C239.899 175.962 251.555 170.976 259.486 163.095C265.08 167.193 272.305 169.667 280.201 169.667C291.749 169.667 301.87 164.38 307.535 156.446C309.093 156.693 310.697 156.828 312.335 156.828C327.063 156.828 339 146.471 339 133.697C339 120.919 327.061 110.564 312.335 110.564Z" fill="white"/>
<path d="M382.635 110.564V110.564C382.635 103.096 379.243 96.32 373.731 91.3167C375.914 87.9622 377.167 84.0905 377.167 79.9631C377.167 67.1894 365.228 56.8344 350.502 56.8344C346.55 56.8344 342.804 57.5857 339.43 58.9243C333.788 54.6714 326.427 52.0916 318.368 52.0916C308.507 52.0916 299.689 55.9473 293.794 62.0119C290.413 61.2756 286.878 60.8803 283.233 60.8803C259.344 60.8803 239.976 77.6793 239.976 98.4033C239.976 99.86 240.081 101.294 240.267 102.707C227.851 106.563 218.964 116.855 218.964 128.952C218.964 144.347 233.351 156.827 251.099 156.827C253.81 156.827 256.44 156.532 258.954 155.984C266.214 167.865 280.61 175.962 297.191 175.962C310.199 175.962 321.855 170.976 329.786 163.095C335.38 167.193 342.605 169.667 350.501 169.667C362.049 169.667 372.17 164.38 377.835 156.446C379.393 156.693 380.997 156.828 382.635 156.828C397.362 156.828 409.3 146.471 409.3 133.697C409.3 120.919 397.361 110.564 382.635 110.564Z" fill="white"/>
<path d="M101.671 110.564V110.564C101.671 103.096 98.279 96.32 92.7668 91.3167C94.9505 87.9622 96.2033 84.0905 96.2033 79.9631C96.2033 67.1894 84.2643 56.8344 69.538 56.8344C65.5864 56.8344 61.84 57.5857 58.4663 58.9243C52.8245 54.6714 45.4635 52.0916 37.4038 52.0916C27.5427 52.0916 18.7248 55.9473 12.8304 62.0119C9.44903 61.2756 5.91433 60.8803 2.26946 60.8803C-21.6203 60.8803 -40.9883 77.6793 -40.9883 98.4033C-40.9883 99.86 -40.8825 101.294 -40.6967 102.707C-53.113 106.563 -62 116.855 -62 128.952C-62 144.347 -47.6128 156.827 -29.8647 156.827C-27.154 156.827 -24.5243 156.532 -22.0102 155.984C-14.7496 167.865 -0.353747 175.962 16.2269 175.962C29.235 175.962 40.891 170.976 48.8222 163.095C54.4164 167.193 61.6413 169.667 69.5369 169.667C81.0849 169.667 91.2063 164.38 96.8707 156.446C98.4291 156.693 100.033 156.828 101.671 156.828C116.399 156.828 128.336 146.471 128.336 133.697C128.336 120.919 116.397 110.564 101.671 110.564Z" fill="white"/>
<path d="M203.306 110.694V110.693C203.306 103.225 199.914 96.4497 194.402 91.4465C196.585 88.0919 197.838 84.2203 197.838 80.0929C197.838 67.3192 185.899 56.9641 171.173 56.9641C167.221 56.9641 163.475 57.7154 160.101 59.0541C154.459 54.8012 147.098 52.2213 139.039 52.2213C129.177 52.2213 120.36 56.0771 114.465 62.1417C111.084 61.4054 107.549 61.0101 103.904 61.0101C80.0144 61.0101 60.6465 77.809 60.6465 98.5331C60.6465 99.9898 60.7523 101.424 60.9381 102.837C48.5218 106.692 39.6348 116.985 39.6348 129.082C39.6348 144.477 54.022 156.956 71.77 156.956C74.4807 156.956 77.1104 156.662 79.6246 156.114C86.8852 167.995 101.281 176.092 117.862 176.092C130.87 176.092 142.526 171.105 150.457 163.224C156.051 167.323 163.276 169.797 171.172 169.797C182.72 169.797 192.841 164.509 198.505 156.576C200.064 156.822 201.668 156.957 203.306 156.957C218.033 156.957 229.971 146.6 229.971 133.827C229.971 121.049 218.032 110.694 203.306 110.694Z" fill="white"/>
<path d="M382.634 110.564V110.564C382.634 103.096 379.242 96.32 373.73 91.3167C375.913 87.9622 377.166 84.0905 377.166 79.9631C377.166 67.1894 365.227 56.8344 350.501 56.8344C346.549 56.8344 342.803 57.5857 339.429 58.9243C333.787 54.6714 326.426 52.0916 318.367 52.0916C308.506 52.0916 299.688 55.9473 293.793 62.0119C290.412 61.2756 286.877 60.8803 283.232 60.8803C259.343 60.8803 239.975 77.6793 239.975 98.4033C239.975 99.86 240.08 101.294 240.266 102.707C227.85 106.563 218.963 116.855 218.963 128.952C218.963 144.347 233.35 156.827 251.098 156.827C253.809 156.827 256.439 156.532 258.953 155.984C266.213 167.865 280.609 175.962 297.19 175.962C310.198 175.962 321.854 170.976 329.785 163.095C335.379 167.193 342.604 169.667 350.5 169.667C362.048 169.667 372.169 164.38 377.834 156.446C379.392 156.693 380.996 156.828 382.634 156.828C397.361 156.828 409.299 146.471 409.299 133.697C409.299 120.919 397.36 110.564 382.634 110.564Z" fill="white"/>
<path d="M101.671 110.564V110.564C101.671 103.096 98.279 96.32 92.7668 91.3167C94.9505 87.9622 96.2033 84.0905 96.2033 79.9631C96.2033 67.1894 84.2643 56.8344 69.538 56.8344C65.5864 56.8344 61.84 57.5857 58.4663 58.9243C52.8245 54.6714 45.4635 52.0916 37.4038 52.0916C27.5427 52.0916 18.7248 55.9473 12.8304 62.0119C9.44903 61.2756 5.91433 60.8803 2.26946 60.8803C-21.6203 60.8803 -40.9883 77.6793 -40.9883 98.4033C-40.9883 99.86 -40.8825 101.294 -40.6967 102.707C-53.113 106.563 -62 116.855 -62 128.952C-62 144.347 -47.6128 156.827 -29.8647 156.827C-27.154 156.827 -24.5243 156.532 -22.0102 155.984C-14.7496 167.865 -0.353747 175.962 16.2269 175.962C29.235 175.962 40.891 170.976 48.8222 163.095C54.4164 167.193 61.6413 169.667 69.5369 169.667C81.0849 169.667 91.2063 164.38 96.8707 156.446C98.4291 156.693 100.033 156.828 101.671 156.828C116.399 156.828 128.336 146.471 128.336 133.697C128.336 120.919 116.397 110.564 101.671 110.564Z" fill="white"/>
</svg>
